<mxfile host="65bd71144e">
    <diagram id="g5wbfVR3hxNmUaX2ej2h" name="Page-1">
        <mxGraphModel dx="2054" dy="1908" grid="1" gridSize="10" guides="1" tooltips="1" connect="1" arrows="1" fold="1" page="1" pageScale="1" pageWidth="850" pageHeight="1100" math="0" shadow="0">
            <root>
                <mxCell id="0"/>
                <mxCell id="1" parent="0"/>
                <mxCell id="I5PKDxI4gq_-QwTu2oaX-67" value="" style="rounded=0;whiteSpace=wrap;html=1;" parent="1" vertex="1">
                    <mxGeometry x="-116" y="-370" width="240" height="335" as="geometry"/>
                </mxCell>
                <mxCell id="I5PKDxI4gq_-QwTu2oaX-2" value="Order Dispatcher&lt;br&gt;&lt;div&gt;Python App&lt;/div&gt;" style="rounded=1;whiteSpace=wrap;html=1;" parent="1" vertex="1">
                    <mxGeometry x="340" y="200" width="120" height="60" as="geometry"/>
                </mxCell>
                <mxCell id="I5PKDxI4gq_-QwTu2oaX-6" value="Fetch" style="text;html=1;strokeColor=none;fillColor=none;align=center;verticalAlign=middle;whiteSpace=wrap;rounded=0;" parent="1" vertex="1">
                    <mxGeometry x="167.5" y="40" width="60" height="30" as="geometry"/>
                </mxCell>
                <mxCell id="I5PKDxI4gq_-QwTu2oaX-12" value="CamÃ©ra" style="rounded=1;whiteSpace=wrap;html=1;" parent="1" vertex="1">
                    <mxGeometry x="340" y="320" width="120" height="70" as="geometry"/>
                </mxCell>
                <mxCell id="I5PKDxI4gq_-QwTu2oaX-13" value="" style="endArrow=classic;html=1;rounded=0;exitX=0.5;exitY=0;exitDx=0;exitDy=0;entryX=0.5;entryY=1;entryDx=0;entryDy=0;" parent="1" source="I5PKDxI4gq_-QwTu2oaX-12" target="I5PKDxI4gq_-QwTu2oaX-2" edge="1">
                    <mxGeometry width="50" height="50" relative="1" as="geometry">
                        <mxPoint x="400" y="300" as="sourcePoint"/>
                        <mxPoint x="450" y="250" as="targetPoint"/>
                        <Array as="points">
                            <mxPoint x="400" y="310"/>
                        </Array>
                    </mxGeometry>
                </mxCell>
                <mxCell id="I5PKDxI4gq_-QwTu2oaX-15" value="COMPANY_WEBSITE.COM" style="rounded=1;whiteSpace=wrap;html=1;" parent="1" vertex="1">
                    <mxGeometry x="-80" y="40" width="240" height="60" as="geometry"/>
                </mxCell>
                <mxCell id="I5PKDxI4gq_-QwTu2oaX-16" value="" style="endArrow=classic;html=1;rounded=0;exitX=0;exitY=0.5;exitDx=0;exitDy=0;entryX=1;entryY=0.5;entryDx=0;entryDy=0;" parent="1" source="3" target="I5PKDxI4gq_-QwTu2oaX-15" edge="1">
                    <mxGeometry width="50" height="50" relative="1" as="geometry">
                        <mxPoint x="340" y="70" as="sourcePoint"/>
                        <mxPoint x="570" y="250" as="targetPoint"/>
                        <Array as="points">
                            <mxPoint x="270" y="70"/>
                            <mxPoint x="180" y="70"/>
                        </Array>
                    </mxGeometry>
                </mxCell>
                <mxCell id="I5PKDxI4gq_-QwTu2oaX-17" value="Sqlite3/Postgresql/&lt;br&gt;SQL/Json/txt" style="strokeWidth=2;html=1;shape=mxgraph.flowchart.database;whiteSpace=wrap;" parent="1" vertex="1">
                    <mxGeometry x="360" y="-220" width="140" height="185" as="geometry"/>
                </mxCell>
                <mxCell id="I5PKDxI4gq_-QwTu2oaX-21" value="TriggerEvent" style="text;html=1;strokeColor=none;fillColor=none;align=center;verticalAlign=middle;whiteSpace=wrap;rounded=0;" parent="1" vertex="1">
                    <mxGeometry x="400" y="280" width="80" height="30" as="geometry"/>
                </mxCell>
                <mxCell id="I5PKDxI4gq_-QwTu2oaX-22" value="" style="endArrow=classic;html=1;rounded=0;exitX=0.5;exitY=0;exitDx=0;exitDy=0;entryX=0.283;entryY=0.994;entryDx=0;entryDy=0;entryPerimeter=0;" parent="1" source="I5PKDxI4gq_-QwTu2oaX-2" target="I5PKDxI4gq_-QwTu2oaX-17" edge="1">
                    <mxGeometry width="50" height="50" relative="1" as="geometry">
                        <mxPoint x="520" y="300" as="sourcePoint"/>
                        <mxPoint x="400" y="-30" as="targetPoint"/>
                        <Array as="points"/>
                    </mxGeometry>
                </mxCell>
                <mxCell id="I5PKDxI4gq_-QwTu2oaX-23" value="UpdateLocalOrder" style="text;html=1;strokeColor=none;fillColor=none;align=center;verticalAlign=middle;whiteSpace=wrap;rounded=0;" parent="1" vertex="1">
                    <mxGeometry x="280" y="130" width="130" height="30" as="geometry"/>
                </mxCell>
                <mxCell id="I5PKDxI4gq_-QwTu2oaX-24" value="" style="endArrow=classic;html=1;rounded=0;exitX=0.75;exitY=0;exitDx=0;exitDy=0;entryX=0.5;entryY=1;entryDx=0;entryDy=0;entryPerimeter=0;" parent="1" source="I5PKDxI4gq_-QwTu2oaX-2" target="I5PKDxI4gq_-QwTu2oaX-17" edge="1">
                    <mxGeometry width="50" height="50" relative="1" as="geometry">
                        <mxPoint x="420" y="200" as="sourcePoint"/>
                        <mxPoint x="360" y="100" as="targetPoint"/>
                    </mxGeometry>
                </mxCell>
                <mxCell id="I5PKDxI4gq_-QwTu2oaX-25" value="Fetch 4 orders + mark them as CurrentlyProcessing" style="text;html=1;strokeColor=none;fillColor=none;align=center;verticalAlign=middle;whiteSpace=wrap;rounded=0;" parent="1" vertex="1">
                    <mxGeometry x="430" y="50" width="130" height="115" as="geometry"/>
                </mxCell>
                <mxCell id="I5PKDxI4gq_-QwTu2oaX-35" value="Users" style="rounded=0;whiteSpace=wrap;html=1;" parent="1" vertex="1">
                    <mxGeometry x="450" y="-102.5" width="40" height="20" as="geometry"/>
                </mxCell>
                <mxCell id="I5PKDxI4gq_-QwTu2oaX-36" value="Orders" style="rounded=0;whiteSpace=wrap;html=1;" parent="1" vertex="1">
                    <mxGeometry x="430" y="-70" width="40" height="20" as="geometry"/>
                </mxCell>
                <mxCell id="I5PKDxI4gq_-QwTu2oaX-37" value="Dishes" style="rounded=0;whiteSpace=wrap;html=1;" parent="1" vertex="1">
                    <mxGeometry x="380" y="-90" width="40" height="20" as="geometry"/>
                </mxCell>
                <mxCell id="I5PKDxI4gq_-QwTu2oaX-39" value="" style="rounded=0;whiteSpace=wrap;html=1;" parent="1" vertex="1">
                    <mxGeometry x="520" y="-405" width="280" height="280" as="geometry"/>
                </mxCell>
                <mxCell id="I5PKDxI4gq_-QwTu2oaX-40" value="Order N 152" style="text;html=1;strokeColor=none;fillColor=none;align=center;verticalAlign=middle;whiteSpace=wrap;rounded=0;" parent="1" vertex="1">
                    <mxGeometry x="610" y="-405" width="110" height="40" as="geometry"/>
                </mxCell>
                <mxCell id="I5PKDxI4gq_-QwTu2oaX-41" value="&lt;div&gt;Quantity = 2&lt;br&gt;Quantity_left = 1&lt;br&gt;&lt;/div&gt;&lt;div&gt;name=Giant &lt;br&gt;&lt;/div&gt;&lt;div&gt;RemoteId = HKF452&lt;/div&gt;&lt;div&gt;ID = 1&lt;/div&gt;&lt;div&gt;completed=False, &lt;br&gt;&lt;/div&gt;&lt;div&gt;order = Foreignkey_Orders&lt;/div&gt;" style="text;html=1;strokeColor=none;fillColor=none;align=left;verticalAlign=middle;whiteSpace=wrap;rounded=0;" parent="1" vertex="1">
                    <mxGeometry x="524" y="-365" width="282" height="105" as="geometry"/>
                </mxCell>
                <mxCell id="I5PKDxI4gq_-QwTu2oaX-45" value="" style="shape=image;html=1;verticalAlign=top;verticalLabelPosition=bottom;labelBackgroundColor=#ffffff;imageAspect=0;aspect=fixed;image=https://cdn1.iconfinder.com/data/icons/nuvola2/48x48/actions/ledorange.png" parent="1" vertex="1">
                    <mxGeometry x="-70" y="280" width="48" height="48" as="geometry"/>
                </mxCell>
                <mxCell id="I5PKDxI4gq_-QwTu2oaX-46" value="" style="shape=image;html=1;verticalAlign=top;verticalLabelPosition=bottom;labelBackgroundColor=#ffffff;imageAspect=0;aspect=fixed;image=https://cdn1.iconfinder.com/data/icons/nuvola2/48x48/actions/ledlightblue.png" parent="1" vertex="1">
                    <mxGeometry x="10" y="280" width="48" height="48" as="geometry"/>
                </mxCell>
                <mxCell id="I5PKDxI4gq_-QwTu2oaX-47" value="" style="shape=image;html=1;verticalAlign=top;verticalLabelPosition=bottom;labelBackgroundColor=#ffffff;imageAspect=0;aspect=fixed;image=https://cdn1.iconfinder.com/data/icons/nuvola2/48x48/actions/ledlightblue.png" parent="1" vertex="1">
                    <mxGeometry x="150" y="280" width="48" height="48" as="geometry"/>
                </mxCell>
                <mxCell id="I5PKDxI4gq_-QwTu2oaX-48" value="" style="shape=image;html=1;verticalAlign=top;verticalLabelPosition=bottom;labelBackgroundColor=#ffffff;imageAspect=0;aspect=fixed;image=https://cdn1.iconfinder.com/data/icons/nuvola2/48x48/actions/ledlightblue.png" parent="1" vertex="1">
                    <mxGeometry x="76" y="280" width="48" height="48" as="geometry"/>
                </mxCell>
                <mxCell id="I5PKDxI4gq_-QwTu2oaX-49" value="" style="endArrow=classic;html=1;rounded=0;exitX=0;exitY=0.75;exitDx=0;exitDy=0;entryX=0.5;entryY=0;entryDx=0;entryDy=0;" parent="1" source="I5PKDxI4gq_-QwTu2oaX-2" target="I5PKDxI4gq_-QwTu2oaX-45" edge="1">
                    <mxGeometry width="50" height="50" relative="1" as="geometry">
                        <mxPoint x="440" y="260" as="sourcePoint"/>
                        <mxPoint x="490" y="210" as="targetPoint"/>
                        <Array as="points">
                            <mxPoint x="-46" y="245"/>
                            <mxPoint x="-46" y="260"/>
                        </Array>
                    </mxGeometry>
                </mxCell>
                <mxCell id="I5PKDxI4gq_-QwTu2oaX-50" value="" style="endArrow=classic;html=1;rounded=0;exitX=0.118;exitY=1.018;exitDx=0;exitDy=0;exitPerimeter=0;" parent="1" source="I5PKDxI4gq_-QwTu2oaX-54" edge="1">
                    <mxGeometry width="50" height="50" relative="1" as="geometry">
                        <mxPoint x="34" y="260" as="sourcePoint"/>
                        <mxPoint x="32" y="280" as="targetPoint"/>
                    </mxGeometry>
                </mxCell>
                <mxCell id="I5PKDxI4gq_-QwTu2oaX-52" value="" style="endArrow=classic;html=1;rounded=0;entryX=0.5;entryY=0;entryDx=0;entryDy=0;exitX=0.477;exitY=0.989;exitDx=0;exitDy=0;exitPerimeter=0;" parent="1" source="I5PKDxI4gq_-QwTu2oaX-54" edge="1">
                    <mxGeometry width="50" height="50" relative="1" as="geometry">
                        <mxPoint x="99.86000000000023" y="260" as="sourcePoint"/>
                        <mxPoint x="99.85999999999977" y="280" as="targetPoint"/>
                    </mxGeometry>
                </mxCell>
                <mxCell id="I5PKDxI4gq_-QwTu2oaX-53" value="" style="endArrow=classic;html=1;rounded=0;entryX=0.5;entryY=0;entryDx=0;entryDy=0;exitX=0.865;exitY=1.033;exitDx=0;exitDy=0;exitPerimeter=0;" parent="1" source="I5PKDxI4gq_-QwTu2oaX-54" edge="1">
                    <mxGeometry width="50" height="50" relative="1" as="geometry">
                        <mxPoint x="173.86000000000024" y="260" as="sourcePoint"/>
                        <mxPoint x="173.8599999999998" y="280" as="targetPoint"/>
                    </mxGeometry>
                </mxCell>
                <mxCell id="I5PKDxI4gq_-QwTu2oaX-54" value="Turn On" style="text;html=1;strokeColor=none;fillColor=none;align=center;verticalAlign=middle;whiteSpace=wrap;rounded=0;" parent="1" vertex="1">
                    <mxGeometry x="10" y="215" width="190" height="30" as="geometry"/>
                </mxCell>
                <mxCell id="I5PKDxI4gq_-QwTu2oaX-56" value="" style="rounded=1;whiteSpace=wrap;html=1;" parent="1" vertex="1">
                    <mxGeometry x="-83.5" y="-307" width="70" height="32" as="geometry"/>
                </mxCell>
                <mxCell id="I5PKDxI4gq_-QwTu2oaX-57" value="Actors" style="text;html=1;strokeColor=none;fillColor=none;align=center;verticalAlign=middle;whiteSpace=wrap;rounded=0;" parent="1" vertex="1">
                    <mxGeometry x="-3.5" y="-305" width="60" height="30" as="geometry"/>
                </mxCell>
                <mxCell id="I5PKDxI4gq_-QwTu2oaX-58" value="" style="endArrow=classic;html=1;rounded=0;" parent="1" edge="1">
                    <mxGeometry width="50" height="50" relative="1" as="geometry">
                        <mxPoint x="-63.5" y="-225" as="sourcePoint"/>
                        <mxPoint x="-33.5" y="-255" as="targetPoint"/>
                    </mxGeometry>
                </mxCell>
                <mxCell id="I5PKDxI4gq_-QwTu2oaX-59" value="Interactions" style="text;html=1;strokeColor=none;fillColor=none;align=center;verticalAlign=middle;whiteSpace=wrap;rounded=0;" parent="1" vertex="1">
                    <mxGeometry x="-3.5" y="-255" width="70" height="30" as="geometry"/>
                </mxCell>
                <mxCell id="I5PKDxI4gq_-QwTu2oaX-60" value="" style="shape=image;html=1;verticalAlign=top;verticalLabelPosition=bottom;labelBackgroundColor=#ffffff;imageAspect=0;aspect=fixed;image=https://cdn1.iconfinder.com/data/icons/nuvola2/48x48/actions/ledlightblue.png" parent="1" vertex="1">
                    <mxGeometry x="-72.5" y="-205" width="48" height="48" as="geometry"/>
                </mxCell>
                <mxCell id="I5PKDxI4gq_-QwTu2oaX-61" value="LED" style="text;html=1;strokeColor=none;fillColor=none;align=center;verticalAlign=middle;whiteSpace=wrap;rounded=0;" parent="1" vertex="1">
                    <mxGeometry x="-3.5" y="-205" width="70" height="30" as="geometry"/>
                </mxCell>
                <mxCell id="I5PKDxI4gq_-QwTu2oaX-62" value="" style="rounded=0;whiteSpace=wrap;html=1;" parent="1" vertex="1">
                    <mxGeometry x="-78.5" y="-135" width="60" height="40" as="geometry"/>
                </mxCell>
                <mxCell id="I5PKDxI4gq_-QwTu2oaX-63" value="Model" style="text;html=1;align=center;verticalAlign=middle;resizable=0;points=[];autosize=1;strokeColor=none;fillColor=none;" parent="1" vertex="1">
                    <mxGeometry x="1.5" y="-125" width="50" height="20" as="geometry"/>
                </mxCell>
                <mxCell id="I5PKDxI4gq_-QwTu2oaX-65" value="" style="endArrow=none;dashed=1;html=1;rounded=0;" parent="1" edge="1">
                    <mxGeometry width="50" height="50" relative="1" as="geometry">
                        <mxPoint x="-64" y="-45" as="sourcePoint"/>
                        <mxPoint x="-33" y="-75" as="targetPoint"/>
                    </mxGeometry>
                </mxCell>
                <mxCell id="I5PKDxI4gq_-QwTu2oaX-66" value="SubDomain" style="text;html=1;align=center;verticalAlign=middle;resizable=0;points=[];autosize=1;strokeColor=none;fillColor=none;" parent="1" vertex="1">
                    <mxGeometry x="-8.5" y="-75" width="80" height="20" as="geometry"/>
                </mxCell>
                <mxCell id="I5PKDxI4gq_-QwTu2oaX-68" value="Legend" style="text;html=1;strokeColor=none;fillColor=none;align=center;verticalAlign=middle;whiteSpace=wrap;rounded=0;" parent="1" vertex="1">
                    <mxGeometry x="-58.5" y="-365" width="125" height="30" as="geometry"/>
                </mxCell>
                <mxCell id="I5PKDxI4gq_-QwTu2oaX-69" value="" style="endArrow=none;html=1;rounded=0;exitX=0.003;exitY=0.101;exitDx=0;exitDy=0;exitPerimeter=0;entryX=1;entryY=0.101;entryDx=0;entryDy=0;entryPerimeter=0;" parent="1" source="I5PKDxI4gq_-QwTu2oaX-67" target="I5PKDxI4gq_-QwTu2oaX-67" edge="1">
                    <mxGeometry width="50" height="50" relative="1" as="geometry">
                        <mxPoint x="286.5" y="-275" as="sourcePoint"/>
                        <mxPoint x="336.5" y="-325" as="targetPoint"/>
                    </mxGeometry>
                </mxCell>
                <mxCell id="I5PKDxI4gq_-QwTu2oaX-70" value="API" style="rounded=0;whiteSpace=wrap;html=1;" parent="1" vertex="1">
                    <mxGeometry x="130" y="60" width="30" height="20" as="geometry"/>
                </mxCell>
                <mxCell id="3" value="Order Retriever&lt;br&gt;&lt;div&gt;Python App&lt;/div&gt;" style="rounded=1;whiteSpace=wrap;html=1;" vertex="1" parent="1">
                    <mxGeometry x="250" y="40" width="120" height="60" as="geometry"/>
                </mxCell>
                <mxCell id="4" value="" style="endArrow=classic;html=1;exitX=0.5;exitY=0;exitDx=0;exitDy=0;entryX=0;entryY=0.85;entryDx=0;entryDy=0;entryPerimeter=0;" edge="1" parent="1" source="3" target="I5PKDxI4gq_-QwTu2oaX-17">
                    <mxGeometry width="50" height="50" relative="1" as="geometry">
                        <mxPoint x="450" y="10" as="sourcePoint"/>
                        <mxPoint x="500" y="-40" as="targetPoint"/>
                        <Array as="points">
                            <mxPoint x="310" y="-63"/>
                        </Array>
                    </mxGeometry>
                </mxCell>
                <mxCell id="5" value="Post" style="text;html=1;strokeColor=none;fillColor=none;align=center;verticalAlign=middle;whiteSpace=wrap;rounded=0;" vertex="1" parent="1">
                    <mxGeometry x="260" y="-35" width="60" height="30" as="geometry"/>
                </mxCell>
                <mxCell id="6" value="Order Displayer&lt;br&gt;&lt;div&gt;Python App&lt;/div&gt;" style="rounded=1;whiteSpace=wrap;html=1;" vertex="1" parent="1">
                    <mxGeometry x="670" y="50" width="120" height="60" as="geometry"/>
                </mxCell>
                <mxCell id="7" value="" style="endArrow=classic;html=1;rounded=0;exitX=0.5;exitY=0;exitDx=0;exitDy=0;entryX=1;entryY=0.85;entryDx=0;entryDy=0;entryPerimeter=0;" edge="1" parent="1" source="6" target="I5PKDxI4gq_-QwTu2oaX-17">
                    <mxGeometry width="50" height="50" relative="1" as="geometry">
                        <mxPoint x="440" y="210" as="sourcePoint"/>
                        <mxPoint x="440" y="-25" as="targetPoint"/>
                        <Array as="points">
                            <mxPoint x="730" y="-63"/>
                        </Array>
                    </mxGeometry>
                </mxCell>
                <mxCell id="8" value="Fetch CurrentlyProcessing Orders" style="text;html=1;strokeColor=none;fillColor=none;align=center;verticalAlign=middle;whiteSpace=wrap;rounded=0;" vertex="1" parent="1">
                    <mxGeometry x="590" y="-150" width="130" height="115" as="geometry"/>
                </mxCell>
                <mxCell id="9" value="" style="endArrow=classic;html=1;exitX=0.5;exitY=1;exitDx=0;exitDy=0;" edge="1" parent="1" source="6">
                    <mxGeometry width="50" height="50" relative="1" as="geometry">
                        <mxPoint x="450" y="110" as="sourcePoint"/>
                        <mxPoint x="730" y="180" as="targetPoint"/>
                    </mxGeometry>
                </mxCell>
                <mxCell id="10" value="" style="fontColor=#0066CC;verticalAlign=top;verticalLabelPosition=bottom;labelPosition=center;align=center;html=1;outlineConnect=0;fillColor=#CCCCCC;strokeColor=#6881B3;gradientColor=none;gradientDirection=north;strokeWidth=2;shape=mxgraph.networks.video_projector_screen;" vertex="1" parent="1">
                    <mxGeometry x="700" y="175" width="60" height="70" as="geometry"/>
                </mxCell>
                <mxCell id="11" value="" style="fontColor=#0066CC;verticalAlign=top;verticalLabelPosition=bottom;labelPosition=center;align=center;html=1;outlineConnect=0;fillColor=#CCCCCC;strokeColor=#6881B3;gradientColor=none;gradientDirection=north;strokeWidth=2;shape=mxgraph.networks.video_projector_screen;" vertex="1" parent="1">
                    <mxGeometry x="540" y="195" width="60" height="95" as="geometry"/>
                </mxCell>
                <mxCell id="12" value="&lt;font color=&quot;#000000&quot;&gt;Screen to&lt;br&gt;Confirm&lt;br&gt;number&lt;/font&gt;" style="text;html=1;strokeColor=none;fillColor=none;align=center;verticalAlign=middle;whiteSpace=wrap;rounded=0;" vertex="1" parent="1">
                    <mxGeometry x="540" y="210" width="60" height="30" as="geometry"/>
                </mxCell>
                <mxCell id="13" value="" style="endArrow=classic;html=1;fontColor=#000000;exitX=1.024;exitY=0.658;exitDx=0;exitDy=0;exitPerimeter=0;entryX=0.031;entryY=0.996;entryDx=0;entryDy=0;entryPerimeter=0;" edge="1" parent="1" source="I5PKDxI4gq_-QwTu2oaX-2" target="12">
                    <mxGeometry width="50" height="50" relative="1" as="geometry">
                        <mxPoint x="400" y="90" as="sourcePoint"/>
                        <mxPoint x="450" y="40" as="targetPoint"/>
                    </mxGeometry>
                </mxCell>
                <mxCell id="14" value="Display" style="text;html=1;strokeColor=none;fillColor=none;align=center;verticalAlign=middle;whiteSpace=wrap;rounded=0;" vertex="1" parent="1">
                    <mxGeometry x="460" y="240" width="80" height="30" as="geometry"/>
                </mxCell>
                <mxCell id="15" value="" style="endArrow=classic;html=1;fontColor=#000000;entryX=1.006;entryY=0.324;entryDx=0;entryDy=0;exitX=0.018;exitY=0.327;exitDx=0;exitDy=0;entryPerimeter=0;exitPerimeter=0;" edge="1" parent="1" source="12" target="I5PKDxI4gq_-QwTu2oaX-2">
                    <mxGeometry width="50" height="50" relative="1" as="geometry">
                        <mxPoint x="420" y="230" as="sourcePoint"/>
                        <mxPoint x="470" y="180" as="targetPoint"/>
                    </mxGeometry>
                </mxCell>
                <mxCell id="16" value="TriggerEvent" style="text;html=1;strokeColor=none;fillColor=none;align=center;verticalAlign=middle;whiteSpace=wrap;rounded=0;" vertex="1" parent="1">
                    <mxGeometry x="460" y="195" width="80" height="30" as="geometry"/>
                </mxCell>
                <mxCell id="17" value="Display" style="text;html=1;strokeColor=none;fillColor=none;align=center;verticalAlign=middle;whiteSpace=wrap;rounded=0;" vertex="1" parent="1">
                    <mxGeometry x="730" y="130" width="80" height="30" as="geometry"/>
                </mxCell>
            </root>
        </mxGraphModel>
    </diagram>
</mxfile>